# xmcd
#
# Track frame offsets:
#	150
#	20710
#	40620
#	64765
#	86910
#	105488
#	127125
#	152100
#	173648
#	188925
#
# Disc length: 2859 seconds
#
# Revision: 1
# Processed by: cddbd v1.4PL0 Copyright (c) Steve Scherf et al.
# Submitted via: EasyCDDAExtractor 5.0.7
#
DISCID=830b290a
DTITLE=Various Artist - Mambo cha cha
DYEAR=1900
DGENRE=
TTITLE0=Son Tuyen - Buc tam thu
TTITLE1=Lynda T Dai - Co ban nho
TTITLE2=Vy Lan - Bambino
TTITLE3=Vu Khanh - Gap nhau lam ngo
TTITLE4=Thuy Huong - Nang giang tien
TTITLE5=Nhu Mai - Chuyen hen ho
TTITLE6=Vi Vy - 16 trang tron
TTITLE7=Lynda T Dai - Canh buom vuon xuan
TTITLE8=Cao Lam - Tinh yeu bay di
TTITLE9=Vy Lan - Lien khuc
EXTD=
EXTT0=
EXTT1=
EXTT2=
EXTT3=
EXTT4=
EXTT5=
EXTT6=
EXTT7=
EXTT8=
EXTT9=
PLAYORDER=
